# MagicaVoxel @ Ephtracy

# group
o 

# material
mtllib TowetTwo.mtl
usemtl palette

# normals
vn -1 0 0
vn 1 0 0
vn 0 -1 0
vn 0 1 0
vn 0 0 -1
vn 0 0 1

# texcoords
vt 0.876953 0.5
vt 0.947266 0.5
vt 0.978516 0.5
vt 0.982422 0.5
vt 0.986328 0.5
vt 0.994141 0.5

# verts
v -5 -5 0
v -5 5 0
v -5 -5 2
v -5 5 2
v -5 -1 9
v -5 1 9
v -5 -2 10
v -5 -1 10
v -5 1 10
v -5 2 10
v -5 -2 12
v -5 -1 12
v -5 1 12
v -5 2 12
v -5 -1 13
v -5 1 13
v -4 -1 10
v -4 1 10
v -4 -1 12
v -4 1 12
v -3 -3 2
v -3 -1 2
v -3 1 2
v -3 3 2
v -3 -4 4
v -3 -3 4
v -3 3 4
v -3 4 4
v -3 -4 5
v -3 -3 5
v -3 3 5
v -3 4 5
v -3 -1 6
v -3 1 6
v -3 -4 8
v -3 -3 8
v -3 3 8
v -3 4 8
v -3 -4 9
v -3 -3 9
v -3 -1 9
v -3 1 9
v -3 3 9
v -3 4 9
v -3 -2 10
v -3 -1 10
v -3 1 10
v -3 2 10
v -3 -3 11
v -3 -2 11
v -3 2 11
v -3 3 11
v -4 -1 12
v -4 1 12
v -4 -1 13
v -4 1 13
v 4 -3 2
v 4 -2 2
v 4 -1 2
v 4 1 2
v 4 2 2
v 4 3 2
v 4 -4 4
v 4 -3 4
v 4 -2 4
v 4 -1 4
v 4 1 4
v 4 2 4
v 4 3 4
v 4 4 4
v 4 -4 5
v 4 -3 5
v 4 -2 5
v 4 -1 5
v 4 1 5
v 4 2 5
v 4 3 5
v 4 4 5
v 4 -4 8
v 4 -3 8
v 4 -2 8
v 4 -1 8
v 4 1 8
v 4 2 8
v 4 3 8
v 4 4 8
v 4 -4 9
v 4 -3 9
v 4 -2 9
v 4 -1 9
v 4 1 9
v 4 2 9
v 4 3 9
v 4 4 9
v 4 -3 11
v 4 -2 11
v 4 2 11
v 4 3 11
v 4 -2 12
v 4 -1 12
v 4 1 12
v 4 2 12
v 5 -5 0
v 5 5 0
v 5 -5 2
v 5 5 2
v -5 -5 0
v -5 -5 2
v 5 -5 0
v 5 -5 2
v -3 -4 4
v -3 -4 5
v -3 -4 8
v -3 -4 9
v 4 -4 4
v 4 -4 5
v 4 -4 8
v 4 -4 9
v -3 -3 2
v -3 -3 4
v -3 -3 5
v -3 -3 8
v -3 -3 9
v -3 -3 11
v 4 -3 2
v 4 -3 4
v 4 -3 5
v 4 -3 8
v 4 -3 9
v 4 -3 11
v -5 -2 10
v -5 -2 12
v -3 -2 10
v -3 -2 11
v 4 -2 11
v 4 -2 12
v -5 -1 9
v -5 -1 10
v -5 -1 12
v -5 -1 13
v -4 -1 12
v -4 -1 13
v -3 -1 9
v -3 -1 10
v -5 1 10
v -5 1 12
v -4 1 10
v -4 1 12
v -5 -1 10
v -5 -1 12
v -4 -1 10
v -4 -1 12
v -5 1 9
v -5 1 10
v -5 1 12
v -5 1 13
v -4 1 12
v -4 1 13
v -3 1 9
v -3 1 10
v -5 2 10
v -5 2 12
v -3 2 10
v -3 2 11
v 4 2 11
v 4 2 12
v -3 3 2
v -3 3 4
v -3 3 5
v -3 3 8
v -3 3 9
v -3 3 11
v 4 3 2
v 4 3 4
v 4 3 5
v 4 3 8
v 4 3 9
v 4 3 11
v -3 4 4
v -3 4 5
v -3 4 8
v -3 4 9
v 4 4 4
v 4 4 5
v 4 4 8
v 4 4 9
v -5 5 0
v -5 5 2
v 5 5 0
v 5 5 2
v -5 -5 0
v 5 -5 0
v -5 5 0
v 5 5 0
v -3 -4 4
v 4 -4 4
v -3 -3 4
v 4 -3 4
v -3 3 4
v 4 3 4
v -3 4 4
v 4 4 4
v -3 -4 8
v 4 -4 8
v -3 -3 8
v 4 -3 8
v -3 3 8
v 4 3 8
v -3 4 8
v 4 4 8
v -5 -1 9
v -3 -1 9
v -5 1 9
v -3 1 9
v -5 -2 10
v -3 -2 10
v -5 -1 10
v -3 -1 10
v -5 1 10
v -3 1 10
v -5 2 10
v -3 2 10
v -5 -1 12
v -4 -1 12
v -5 1 12
v -4 1 12
v -5 -5 2
v 5 -5 2
v -4 -4 2
v 4 -4 2
v -3 -3 2
v 4 -3 2
v 4 -2 2
v -3 -1 2
v 4 -1 2
v -3 1 2
v 4 1 2
v 4 2 2
v -3 3 2
v 4 3 2
v -4 4 2
v 4 4 2
v -5 5 2
v 5 5 2
v -3 -4 5
v 4 -4 5
v -3 -3 5
v 4 -3 5
v -3 3 5
v 4 3 5
v -3 4 5
v 4 4 5
v -3 -4 9
v 4 -4 9
v -3 -3 9
v 4 -3 9
v -3 3 9
v 4 3 9
v -3 4 9
v 4 4 9
v -5 -1 10
v -4 -1 10
v -5 1 10
v -4 1 10
v -3 -3 11
v 4 -3 11
v -3 -2 11
v 4 -2 11
v -3 2 11
v 4 2 11
v -3 3 11
v 4 3 11
v -5 -2 12
v 4 -2 12
v -5 -1 12
v -4 -1 12
v -3 -1 12
v 4 -1 12
v -5 1 12
v -4 1 12
v -3 1 12
v 4 1 12
v -5 2 12
v 4 2 12
v -5 -1 13
v -4 -1 13
v -5 1 13
v -4 1 13

# faces
f 3/3/1 2/3/1 1/3/1
f 4/3/1 2/3/1 3/3/1
f 8/5/1 6/5/1 5/5/1
f 9/5/1 6/5/1 8/5/1
f 11/5/1 8/5/1 7/5/1
f 12/5/1 8/5/1 11/5/1
f 13/5/1 10/5/1 9/5/1
f 14/5/1 10/5/1 13/5/1
f 15/5/1 13/5/1 12/5/1
f 16/5/1 13/5/1 15/5/1
f 19/5/1 18/5/1 17/5/1
f 20/5/1 18/5/1 19/5/1
f 26/2/1 22/2/1 21/2/1
f 27/2/1 24/2/1 23/2/1
f 29/5/1 26/5/1 25/5/1
f 30/2/1 22/2/1 26/2/1
f 30/5/1 26/5/1 29/5/1
f 31/5/1 28/5/1 27/5/1
f 31/2/1 27/2/1 23/2/1
f 32/5/1 28/5/1 31/5/1
f 33/2/1 22/2/1 30/2/1
f 33/6/1 23/6/1 22/6/1
f 34/2/1 31/2/1 23/2/1
f 34/6/1 23/6/1 33/6/1
f 36/2/1 33/2/1 30/2/1
f 36/2/1 34/2/1 33/2/1
f 37/2/1 31/2/1 34/2/1
f 37/2/1 34/2/1 36/2/1
f 39/5/1 36/5/1 35/5/1
f 40/2/1 37/2/1 36/2/1
f 40/5/1 36/5/1 39/5/1
f 41/2/1 37/2/1 40/2/1
f 42/2/1 37/2/1 41/2/1
f 43/5/1 38/5/1 37/5/1
f 43/2/1 37/2/1 42/2/1
f 44/5/1 38/5/1 43/5/1
f 45/2/1 41/2/1 40/2/1
f 46/2/1 41/2/1 45/2/1
f 47/2/1 43/2/1 42/2/1
f 48/2/1 43/2/1 47/2/1
f 49/2/1 45/2/1 40/2/1
f 50/2/1 45/2/1 49/2/1
f 51/2/1 43/2/1 48/2/1
f 52/2/1 43/2/1 51/2/1
f 53/5/2 54/5/2 55/5/2
f 55/5/2 54/5/2 56/5/2
f 57/2/2 58/2/2 64/2/2
f 58/5/2 59/5/2 65/5/2
f 64/2/2 58/2/2 65/2/2
f 59/2/2 60/2/2 66/2/2
f 65/5/2 59/5/2 66/5/2
f 60/5/2 61/5/2 67/5/2
f 66/2/2 60/2/2 67/2/2
f 61/2/2 62/2/2 68/2/2
f 67/5/2 61/5/2 68/5/2
f 68/2/2 62/2/2 69/2/2
f 66/5/2 67/5/2 71/5/2
f 69/5/2 70/5/2 71/5/2
f 68/5/2 69/5/2 71/5/2
f 67/5/2 68/5/2 71/5/2
f 63/5/2 64/5/2 71/5/2
f 65/5/2 66/5/2 71/5/2
f 64/5/2 65/5/2 71/5/2
f 71/5/2 70/5/2 72/5/2
f 72/5/2 70/5/2 73/5/2
f 73/5/2 70/5/2 74/5/2
f 74/5/2 70/5/2 75/5/2
f 75/5/2 70/5/2 76/5/2
f 76/5/2 70/5/2 77/5/2
f 77/5/2 70/5/2 78/5/2
f 72/2/2 73/2/2 80/2/2
f 73/5/2 74/5/2 81/5/2
f 80/2/2 73/2/2 81/2/2
f 74/2/2 75/2/2 82/2/2
f 81/5/2 74/5/2 82/5/2
f 75/5/2 76/5/2 83/5/2
f 82/2/2 75/2/2 83/2/2
f 76/2/2 77/2/2 84/2/2
f 83/5/2 76/5/2 84/5/2
f 84/2/2 77/2/2 85/2/2
f 82/5/2 83/5/2 87/5/2
f 85/5/2 86/5/2 87/5/2
f 84/5/2 85/5/2 87/5/2
f 83/5/2 84/5/2 87/5/2
f 79/5/2 80/5/2 87/5/2
f 81/5/2 82/5/2 87/5/2
f 80/5/2 81/5/2 87/5/2
f 87/5/2 86/5/2 88/5/2
f 88/5/2 86/5/2 89/5/2
f 89/5/2 86/5/2 90/5/2
f 90/5/2 86/5/2 91/5/2
f 91/5/2 86/5/2 92/5/2
f 92/5/2 86/5/2 93/5/2
f 93/5/2 86/5/2 94/5/2
f 88/2/2 89/2/2 95/2/2
f 89/5/2 90/5/2 96/5/2
f 95/2/2 89/2/2 96/2/2
f 92/2/2 93/2/2 97/2/2
f 91/5/2 92/5/2 97/5/2
f 97/2/2 93/2/2 98/2/2
f 96/5/2 90/5/2 99/5/2
f 90/2/2 91/2/2 100/2/2
f 99/5/2 90/5/2 100/5/2
f 91/5/2 97/5/2 101/5/2
f 100/2/2 91/2/2 101/2/2
f 101/5/2 97/5/2 102/5/2
f 103/3/2 104/3/2 105/3/2
f 105/3/2 104/3/2 106/3/2
f 109/3/3 108/3/3 107/3/3
f 110/3/3 108/3/3 109/3/3
f 115/5/3 112/5/3 111/5/3
f 116/5/3 112/5/3 115/5/3
f 117/5/3 114/5/3 113/5/3
f 118/5/3 114/5/3 117/5/3
f 125/2/3 120/2/3 119/2/3
f 126/2/3 120/2/3 125/2/3
f 127/2/3 122/2/3 121/2/3
f 128/2/3 122/2/3 127/2/3
f 129/2/3 124/2/3 123/2/3
f 130/2/3 124/2/3 129/2/3
f 133/5/3 132/5/3 131/5/3
f 134/5/3 132/5/3 133/5/3
f 135/5/3 132/5/3 134/5/3
f 136/5/3 132/5/3 135/5/3
f 141/5/3 140/5/3 139/5/3
f 142/5/3 140/5/3 141/5/3
f 143/5/3 138/5/3 137/5/3
f 144/5/3 138/5/3 143/5/3
f 147/5/3 146/5/3 145/5/3
f 148/5/3 146/5/3 147/5/3
f 149/5/4 150/5/4 151/5/4
f 151/5/4 150/5/4 152/5/4
f 155/5/4 156/5/4 157/5/4
f 157/5/4 156/5/4 158/5/4
f 153/5/4 154/5/4 159/5/4
f 159/5/4 154/5/4 160/5/4
f 161/5/4 162/5/4 163/5/4
f 163/5/4 162/5/4 164/5/4
f 164/5/4 162/5/4 165/5/4
f 165/5/4 162/5/4 166/5/4
f 167/2/4 168/2/4 173/2/4
f 173/2/4 168/2/4 174/2/4
f 169/2/4 170/2/4 175/2/4
f 175/2/4 170/2/4 176/2/4
f 171/2/4 172/2/4 177/2/4
f 177/2/4 172/2/4 178/2/4
f 179/5/4 180/5/4 183/5/4
f 183/5/4 180/5/4 184/5/4
f 181/5/4 182/5/4 185/5/4
f 185/5/4 182/5/4 186/5/4
f 187/3/4 188/3/4 189/3/4
f 189/3/4 188/3/4 190/3/4
f 193/3/5 192/3/5 191/3/5
f 194/3/5 192/3/5 193/3/5
f 197/5/5 196/5/5 195/5/5
f 198/5/5 196/5/5 197/5/5
f 201/5/5 200/5/5 199/5/5
f 202/5/5 200/5/5 201/5/5
f 205/5/5 204/5/5 203/5/5
f 206/5/5 204/5/5 205/5/5
f 209/5/5 208/5/5 207/5/5
f 210/5/5 208/5/5 209/5/5
f 213/5/5 212/5/5 211/5/5
f 214/5/5 212/5/5 213/5/5
f 217/5/5 216/5/5 215/5/5
f 218/5/5 216/5/5 217/5/5
f 221/5/5 220/5/5 219/5/5
f 222/5/5 220/5/5 221/5/5
f 225/5/5 224/5/5 223/5/5
f 226/5/5 224/5/5 225/5/5
f 227/3/6 228/3/6 229/3/6
f 229/3/6 228/3/6 230/3/6
f 229/4/6 230/4/6 231/4/6
f 230/3/6 228/3/6 232/3/6
f 231/4/6 230/4/6 232/4/6
f 232/3/6 228/3/6 233/3/6
f 229/4/6 231/4/6 234/4/6
f 233/3/6 228/3/6 235/3/6
f 229/4/6 234/4/6 236/4/6
f 235/3/6 228/3/6 237/3/6
f 237/3/6 228/3/6 238/3/6
f 229/4/6 236/4/6 239/4/6
f 238/3/6 228/3/6 240/3/6
f 227/3/6 229/3/6 241/3/6
f 239/4/6 240/4/6 241/4/6
f 229/4/6 239/4/6 241/4/6
f 240/3/6 228/3/6 242/3/6
f 241/4/6 240/4/6 242/4/6
f 227/3/6 241/3/6 243/3/6
f 241/3/6 242/3/6 243/3/6
f 242/3/6 228/3/6 244/3/6
f 243/3/6 242/3/6 244/3/6
f 245/5/6 246/5/6 247/5/6
f 247/5/6 246/5/6 248/5/6
f 249/5/6 250/5/6 251/5/6
f 251/5/6 250/5/6 252/5/6
f 253/5/6 254/5/6 255/5/6
f 255/5/6 254/5/6 256/5/6
f 257/5/6 258/5/6 259/5/6
f 259/5/6 258/5/6 260/5/6
f 261/5/6 262/5/6 263/5/6
f 263/5/6 262/5/6 264/5/6
f 265/2/6 266/2/6 267/2/6
f 267/2/6 266/2/6 268/2/6
f 269/2/6 270/2/6 271/2/6
f 271/2/6 270/2/6 272/2/6
f 273/5/6 274/5/6 275/5/6
f 275/5/6 274/5/6 276/5/6
f 276/5/6 274/5/6 277/5/6
f 277/5/6 274/5/6 278/5/6
f 276/5/6 277/5/6 280/5/6
f 277/2/6 278/2/6 281/2/6
f 280/5/6 277/5/6 281/5/6
f 281/2/6 278/2/6 282/2/6
f 279/5/6 280/5/6 283/5/6
f 280/5/6 281/5/6 283/5/6
f 281/5/6 282/5/6 283/5/6
f 283/5/6 282/5/6 284/5/6
f 285/5/6 286/5/6 287/5/6
f 287/5/6 286/5/6 288/5/6
